<svg width="21" height="29" viewBox="0 0 21 29" fill="none" xmlns="http://www.w3.org/2000/svg">
<path fill-rule="evenodd" clip-rule="evenodd" d="M4.2 8.62595C4.2 6.75416 4.86375 4.95903 6.04523 3.63548C7.2267 2.31192 8.82913 1.56835 10.5 1.56835C12.1709 1.56835 13.7733 2.31192 14.9548 3.63548C16.1362 4.95903 16.8 6.75416 16.8 8.62595V9.41013H18.2V8.62595C18.2 3.86207 14.7525 0 10.5 0C6.2475 0 2.8 3.86207 2.8 8.62595V9.41013H4.2V8.62595ZM15.4 9.41013V8.62595C15.4 7.90509 15.2733 7.19129 15.027 6.52531C14.7808 5.85932 14.4198 5.25419 13.9648 4.74447C13.5098 4.23475 12.9696 3.83041 12.3751 3.55455C11.7806 3.27869 11.1435 3.13671 10.5 3.13671C9.85652 3.13671 9.21934 3.27869 8.62485 3.55455C8.03035 3.83041 7.49018 4.23475 7.03517 4.74447C6.58017 5.25419 6.21924 5.85932 5.97299 6.52531C5.72674 7.19129 5.6 7.90509 5.6 8.62595V9.41013H7V8.62595C7 7.58607 7.36875 6.58877 8.02512 5.85346C8.6815 5.11816 9.57174 4.70506 10.5 4.70506C11.4283 4.70506 12.3185 5.11816 12.9749 5.85346C13.6312 6.58877 14 7.58607 14 8.62595V9.41013H15.4ZM5.6 10.9785H19.6V26.662H1.4V10.9785H4.2V9.41013H1.4C1.0287 9.41013 0.672601 9.57536 0.410051 9.86949C0.1475 10.1636 0 10.5625 0 10.9785V26.662C0 27.078 0.1475 27.4769 0.410051 27.771C0.672601 28.0651 1.0287 28.2304 1.4 28.2304H19.6C19.9713 28.2304 20.3274 28.0651 20.5899 27.771C20.8525 27.4769 21 27.078 21 26.662V10.9785C21 10.5625 20.8525 10.1636 20.5899 9.86949C20.3274 9.57536 19.9713 9.41013 19.6 9.41013H5.6V10.9785Z" fill="#F4BA15"/>
<path fill-rule="evenodd" clip-rule="evenodd" d="M16.7999 15.6835H4.19995V14.1152H16.7999V15.6835ZM16.7999 19.6044H4.19995V18.0361H16.7999V19.6044ZM16.7999 23.5253H4.19995V21.957H16.7999V23.5253Z" fill="#F4BA15"/>
</svg>
