<svg width="29" height="30" viewBox="0 0 29 30" fill="none" xmlns="http://www.w3.org/2000/svg">
<path d="M14.0592 0.000682832C14.5504 0.000682832 15.0342 0.0325578 15.4842 0.107558C15.9274 0.165632 16.3646 0.262248 16.791 0.396308C17.2185 0.525683 17.6367 0.686933 18.0548 0.889433C18.4617 1.08256 18.8798 1.31881 19.2979 1.57568C20.0048 2.02568 20.7004 2.38943 21.4092 2.68006C22.8044 3.23849 24.2798 3.57079 25.7798 3.66443C26.541 3.71881 27.3229 3.75068 28.1367 3.75068V11.2507C28.1367 12.6757 27.9548 14.0257 27.591 15.3119C27.2416 16.5798 26.7451 17.8025 26.1117 18.9551C25.4809 20.106 24.7345 21.1897 23.8842 22.1894C23.0208 23.2119 22.0859 24.1718 21.0867 25.0619C20.0742 25.9547 19.0078 26.7844 17.8935 27.5463C16.7798 28.3188 15.6548 29.0369 14.5298 29.6894L14.0798 29.9576L13.6298 29.6894C12.4733 29.0199 11.3437 28.3049 10.2435 27.5463C9.12303 26.793 8.0561 25.9629 7.05042 25.0619C6.05177 24.1718 5.11755 23.2119 4.25479 22.1894C3.40672 21.1855 2.65702 20.1024 2.01604 18.9551C1.39341 17.7974 0.897421 16.5759 0.536666 15.3119C0.170609 13.9896 -0.00986767 12.6227 0.000415878 11.2507V3.75068C0.816041 3.75068 1.59792 3.71881 2.35917 3.66443C3.10853 3.61238 3.85304 3.50522 4.58667 3.34381C5.30479 3.18256 6.02292 2.96881 6.72979 2.68006C7.4633 2.38402 8.16655 2.01795 8.82979 1.58693C9.65479 1.05068 10.491 0.655058 11.316 0.394433C12.2045 0.122055 13.1299 -0.0107762 14.0592 0.000682832ZM26.2504 5.59381C24.8311 5.52494 23.425 5.28765 22.0617 4.88693C20.7056 4.48241 19.4139 3.88707 18.2254 3.11881C17.609 2.71418 16.9395 2.39679 16.236 2.17568C15.5334 1.96331 14.8026 1.85838 14.0685 1.86443C13.329 1.85965 12.5929 1.96454 11.8842 2.17568C11.1797 2.3896 10.5111 2.70748 9.90042 3.11881C8.7099 3.89126 7.41487 4.48921 6.05479 4.89443C4.72542 5.28068 3.33417 5.51693 1.87542 5.60318V11.2601C1.87542 12.5032 2.03667 13.6919 2.35917 14.8376C2.68771 15.9732 3.14045 17.0692 3.70917 18.1057C4.2847 19.1529 4.96304 20.1403 5.73417 21.0532C6.51604 21.9738 7.35042 22.8307 8.25042 23.6444C9.15042 24.4601 10.0935 25.2101 11.0798 25.9057C12.0754 26.6032 13.0729 27.2351 14.0685 27.8126C15.088 27.2191 16.082 26.5829 17.0479 25.9057C18.0407 25.2122 18.9888 24.457 19.8867 23.6444C20.7867 22.8307 21.6229 21.9738 22.4048 21.0532C23.176 20.1404 23.8543 19.153 24.4298 18.1057C24.996 17.0705 25.442 15.974 25.7592 14.8376C26.0915 13.6743 26.2569 12.4698 26.2504 11.2601V5.59381Z" fill="#9CA5FF"/>
<path fill-rule="evenodd" clip-rule="evenodd" d="M21.0491 8.83006L20.2241 8.12131L19.4629 8.18693L11.2879 17.8394L8.50348 13.8644L7.75348 13.7369L6.88536 14.3576L6.75598 15.1076L10.3354 20.2188L10.7422 20.4438L11.5991 20.4963L12.0379 20.3051L21.1035 9.58943L21.0491 8.83006Z" fill="#9CA5FF"/>
</svg>
